<?xml version="1.0" standalone="no"?>
<!DOCTYPE svg PUBLIC "-//W3C//DTD SVG 20010904//EN"
 "http://www.w3.org/TR/2001/REC-SVG-20010904/DTD/svg10.dtd">
<svg version="1.0" xmlns="http://www.w3.org/2000/svg"
 width="512.000000pt" height="512.000000pt" viewBox="0 0 512.000000 512.000000"
 preserveAspectRatio="xMidYMid meet">
<metadata>
Created by potrace 1.14, written by Peter Selinger 2001-2017
</metadata>
<g transform="translate(0.000000,512.000000) scale(0.100000,-0.100000)"
fill="#000000" stroke="none">
<path d="M2321 5100 c-172 -14 -352 -53 -566 -121 -128 -40 -149 -49 -335
-140 -255 -126 -429 -249 -639 -454 -155 -151 -230 -241 -346 -415 -162 -243
-264 -470 -343 -760 -60 -219 -77 -362 -77 -645 0 -283 15 -412 77 -645 92
-347 262 -681 491 -965 143 -178 376 -384 595 -529 242 -160 615 -309 907
-362 178 -32 240 -37 470 -37 316 0 434 17 750 106 111 31 267 94 402 162
1063 537 1611 1727 1326 2880 -249 1013 -1104 1776 -2148 1915 -97 13 -451 19
-564 10z m470 -736 l24 -26 0 -285 0 -285 -31 -27 c-17 -15 -59 -36 -92 -46
l-62 -19 0 -923 0 -923 289 0 288 0 7 42 c11 71 37 136 63 163 l26 25 204 0
c223 0 246 -5 271 -58 9 -19 12 -131 12 -438 l0 -413 -34 -35 -33 -36 -939 0
c-517 0 -948 3 -959 6 -11 3 -31 20 -43 38 -23 33 -23 36 -20 313 l3 280 -100
-76 c-55 -42 -103 -80 -106 -85 -10 -13 -29 3 -29 24 0 35 12 50 83 102 40 29
111 83 159 120 48 38 92 68 98 68 5 0 10 -15 10 -34 0 -25 -7 -39 -22 -50 -29
-20 -15 -20 39 0 l43 17 0 936 0 936 -71 25 c-111 38 -109 30 -109 357 l0 271
26 31 26 31 477 0 478 0 24 -26z m-1201 -332 c0 -4 -27 -28 -60 -53 -34 -24
-85 -63 -115 -87 -59 -46 -75 -47 -75 -3 0 24 13 39 81 90 71 53 86 61 125 61
24 0 44 -4 44 -8z m100 -34 c0 -29 -8 -39 -63 -80 -34 -26 -106 -81 -160 -123
-54 -41 -104 -75 -112 -75 -10 0 -15 10 -15 30 0 21 9 36 33 54 218 170 294
226 305 226 7 0 12 -13 12 -32z m0 -141 c-1 -27 -9 -38 -51 -67 -28 -19 -60
-43 -72 -54 -74 -63 -208 -157 -217 -151 -5 3 -10 19 -10 34 0 24 14 39 88 94
48 36 123 92 166 125 44 34 83 59 88 56 4 -3 8 -20 8 -37z m8 -133 c2 -27 -10
-38 -167 -151 -93 -68 -174 -123 -180 -123 -6 0 -11 15 -11 33 1 27 9 37 51
67 28 19 56 40 62 45 7 6 46 35 87 65 41 30 89 65 105 77 37 27 49 24 53 -13z
m80 -78 c10 -11 -30 -47 -178 -158 -93 -71 -177 -128 -187 -128 -24 0 -46 15
-42 28 2 6 83 70 179 142 147 110 179 130 200 125 14 -4 26 -8 28 -9z m100
-58 c3 -25 -12 -38 -150 -141 -191 -142 -186 -139 -215 -120 -13 8 -23 19 -23
23 0 5 20 21 45 38 24 16 59 41 77 55 119 94 235 175 248 174 8 -1 16 -14 18
-29z m2 -125 c-1 -37 -4 -40 -167 -160 -91 -68 -169 -120 -174 -117 -17 10 -9
53 13 73 12 12 57 47 100 78 44 32 109 81 146 110 37 29 70 52 75 53 4 0 7
-17 7 -37z m0 -136 c0 -29 -8 -39 -81 -92 -44 -33 -86 -65 -92 -70 -7 -6 -34
-26 -62 -45 -27 -19 -58 -43 -69 -52 -11 -10 -26 -18 -34 -18 -21 0 -8 69 15
85 10 7 81 61 158 119 77 58 146 106 153 106 7 0 12 -13 12 -33z m0 -134 c0
-35 -5 -42 -56 -78 -31 -22 -84 -62 -118 -89 -66 -52 -159 -116 -170 -116 -3
0 -6 14 -6 30 0 33 13 48 80 98 25 18 92 68 150 112 58 44 108 80 113 80 4 0
7 -17 7 -37z m0 -138 c0 -29 -7 -39 -45 -67 -25 -18 -96 -72 -158 -119 -137
-104 -147 -108 -147 -70 0 16 8 38 18 49 22 26 310 242 323 242 5 0 9 -16 9
-35z m0 -134 c0 -37 -3 -41 -92 -106 -51 -38 -125 -92 -165 -122 -40 -29 -77
-53 -83 -53 -14 0 -13 57 3 70 37 31 64 53 123 96 36 27 95 72 132 101 37 29
70 52 75 53 4 0 7 -17 7 -39z m0 -141 c0 -22 -4 -40 -8 -40 -4 0 -19 -9 -32
-20 -14 -10 -79 -60 -145 -109 -66 -50 -125 -95 -132 -101 -7 -5 -17 -10 -23
-10 -14 0 -13 53 3 73 15 20 318 247 329 247 4 0 8 -18 8 -40z m0 -129 c0 -38
-2 -40 -157 -156 -86 -65 -165 -120 -175 -123 -15 -3 -18 2 -18 26 0 17 7 37
15 44 9 7 21 18 28 23 7 6 50 40 97 75 47 35 109 83 138 107 30 24 58 43 63
43 5 0 9 -17 9 -39z m0 -138 c0 -37 -3 -40 -164 -160 -91 -68 -169 -123 -175
-123 -15 0 -14 53 2 72 17 21 317 248 328 248 5 0 9 -17 9 -37z m0 -132 c0
-35 -5 -43 -48 -73 -26 -19 -101 -76 -166 -126 -65 -51 -122 -89 -127 -86 -21
12 -8 58 24 86 47 42 301 236 310 237 4 1 7 -17 7 -38z m0 -138 c-1 -35 -6
-42 -76 -93 -96 -71 -178 -133 -184 -140 -16 -18 -65 -50 -76 -50 -28 0 -15
52 21 86 42 39 297 233 308 234 4 0 7 -17 7 -37z m0 -136 c0 -31 -9 -41 -132
-135 -73 -55 -145 -110 -159 -121 -49 -38 -59 -37 -59 2 0 31 7 41 58 81 117
94 267 204 280 205 7 1 12 -12 12 -32z m0 -142 c0 -28 -7 -38 -40 -62 -22 -15
-93 -69 -158 -119 -144 -111 -152 -115 -152 -69 0 40 3 43 115 126 48 35 116
87 153 116 36 28 69 50 74 47 4 -3 8 -20 8 -39z m-180 -392 c0 -16 -4 -33 -8
-40 -14 -22 -334 -253 -343 -247 -17 10 -9 52 16 77 27 26 93 61 138 72 17 5
28 16 32 33 4 18 30 44 77 80 40 28 75 52 80 52 4 0 8 -12 8 -27z m-10 -148
c0 -33 -7 -40 -161 -155 -88 -66 -167 -120 -175 -120 -11 0 -14 9 -12 32 3 28
22 46 163 154 88 68 166 123 173 123 7 1 12 -12 12 -34z m-1 -138 c0 -28 -11
-40 -92 -102 -163 -124 -238 -175 -248 -170 -5 4 -9 18 -9 33 0 23 24 45 168
153 92 69 170 124 175 122 4 -2 7 -19 6 -36z m1 -134 c0 -34 -6 -42 -51 -73
-27 -19 -85 -62 -129 -95 -171 -130 -170 -129 -170 -75 0 25 19 43 167 154 93
69 171 126 175 126 5 0 8 -17 8 -37z m34 -109 c9 -8 14 -20 10 -25 -6 -10
-239 -188 -317 -243 -39 -27 -41 -27 -54 -10 -8 10 -12 25 -11 33 4 18 322
261 342 261 8 0 22 -7 30 -16z m166 -38 c0 -7 -21 -29 -46 -47 -25 -19 -87
-66 -137 -104 -136 -104 -172 -127 -209 -129 -39 -3 -60 3 -52 15 3 5 67 55
142 110 75 56 157 117 181 135 48 37 121 49 121 20z m190 5 c0 -6 -33 -35 -72
-65 -40 -31 -103 -79 -140 -107 -108 -82 -163 -115 -194 -114 -17 1 -30 8 -31
16 -2 8 74 71 175 146 161 121 181 132 220 133 23 0 42 -4 42 -9z m180 2 c0
-15 -15 -29 -80 -76 -77 -57 -127 -94 -195 -146 -27 -21 -61 -44 -73 -50 -30
-16 -90 -22 -97 -10 -7 11 9 24 200 169 146 109 164 120 203 120 23 0 42 -3
42 -7z m180 0 c0 -15 -18 -30 -179 -152 -131 -99 -173 -126 -209 -133 -46 -8
-67 -2 -54 17 7 11 312 241 347 262 22 13 95 18 95 6z m180 0 c0 -15 -15 -29
-80 -78 -234 -176 -273 -205 -278 -206 -42 -5 -77 -2 -77 8 0 10 123 109 220
178 15 11 42 32 59 46 58 48 80 59 118 59 21 0 38 -3 38 -7z m190 -3 c0 -10
-332 -261 -365 -276 -29 -13 -80 -11 -80 3 0 7 59 56 130 111 72 54 152 115
178 135 39 30 57 37 93 37 24 0 44 -4 44 -10z m170 0 c0 -9 -53 -53 -125 -105
-16 -11 -54 -40 -86 -65 -123 -95 -149 -111 -182 -115 -69 -6 -62 10 34 81 51
38 136 102 189 141 78 60 102 73 133 73 20 0 37 -4 37 -10z m180 -3 c0 -7 -79
-71 -175 -142 -173 -129 -226 -156 -264 -135 -17 9 -26 1 189 164 150 114 169
125 208 126 28 0 42 -4 42 -13z m180 0 c0 -7 -37 -41 -82 -74 -46 -33 -123
-91 -172 -128 -85 -66 -147 -92 -183 -78 -20 8 -4 23 116 110 58 42 108 80
111 83 3 4 34 28 69 53 50 37 72 47 102 47 26 0 39 -5 39 -13z m35 -67 c3 -11
4 -29 0 -39 -9 -28 -201 -171 -230 -171 -13 0 -30 -3 -39 -6 -11 -4 -16 0 -16
12 0 12 37 46 100 93 55 40 115 87 133 102 38 34 44 35 52 9z m-5 -137 c-1
-27 -22 -49 -63 -66 -34 -15 -37 -15 -37 1 1 15 74 80 93 81 4 1 7 -7 7 -16z"/>
</g>
</svg>
